<svg width="300" height="300" viewBox="0 0 300 300" fill="none" xmlns="http://www.w3.org/2000/svg">
<g clip-path="url(#clip0_4327_157433)">
<circle cx="150" cy="150" r="150" fill="#241C19"/>
<circle cx="150" cy="150" r="126" fill="#241C19"/>
<path d="M212.395 174.629H184.113V179.319H212.395V174.629Z" fill="#FF8D6B"/>
<path d="M238.349 147.172L229.005 160.489L219.662 147.172H213.218L226.177 165.465V179.355H231.798V165.465H231.833L244.757 147.172H238.349Z" fill="white"/>
<path d="M68.9115 162.637L68.4819 162.315L68.8757 161.921C70.3792 160.382 71.2742 158.305 71.2742 156.122C71.2742 151.181 66.7277 147.172 61.1431 147.172H46V179.355H61.9664C67.8733 179.355 72.7062 175.095 72.7062 169.869C72.7062 167.076 71.31 164.463 68.9115 162.637ZM51.6205 151.862H61.1073C63.7564 151.862 65.8685 153.759 65.8685 156.122C65.8685 158.484 63.7206 160.382 61.1073 160.382H51.6205V151.862ZM61.9664 174.63H51.6205V165.071H61.9664C64.9378 165.071 67.3363 167.219 67.3363 169.869C67.3363 172.518 64.9378 174.63 61.9664 174.63Z" fill="white"/>
<path d="M166.607 168.616L157.3 147.172H151.106L165.283 179.355H167.896L182.109 147.172H175.915L166.607 168.616Z" fill="white"/>
<path d="M95.1167 146.527C85.8805 146.527 78.3984 154.045 78.3984 163.281C78.3984 172.518 85.9163 180 95.1525 180C104.389 180 111.871 172.482 111.871 163.246C111.871 154.009 104.389 146.527 95.1167 146.527ZM95.1167 174.487C88.9234 174.487 83.8757 169.475 83.8757 163.281C83.8757 157.088 88.8876 152.04 95.1167 152.04C101.31 152.04 106.358 157.052 106.358 163.281C106.322 169.439 101.31 174.451 95.1167 174.487Z" fill="white"/>
<path d="M139.651 167.9L121.358 147.172H118.565V179.355H124.186V158.592L142.443 179.355H145.236V147.172H139.651V167.9Z" fill="white"/>
<path d="M198.254 146.527C192.06 146.527 187.013 151.539 187.013 157.768C187.013 163.997 192.025 169.009 198.254 169.009C204.483 169.009 209.495 163.997 209.495 157.768C209.459 151.539 204.447 146.527 198.254 146.527ZM198.254 164.212C194.674 164.212 191.774 161.312 191.774 157.732C191.774 154.153 194.674 151.253 198.254 151.253C201.834 151.253 204.733 154.153 204.733 157.732C204.697 161.312 201.834 164.212 198.254 164.212Z" fill="white"/>
<path d="M76.429 125.511V136.43H73.4219V120.32H73.4577H73.4219H76.787L81.7631 129.234L86.7392 120.32H90.0685V136.43H87.0972V125.511L82.8371 133.315H80.6891L76.429 125.511Z" fill="white"/>
<path d="M204.805 120.32V123.077H209.566V136.43H212.573V123.077H217.334V120.32H204.805Z" fill="white"/>
<path d="M187.442 120.32V123.077H192.204V136.43H195.211V123.077H199.936V120.32H187.442Z" fill="white"/>
<path d="M160.522 120.32H157.515V136.43H160.522V120.32Z" fill="white"/>
<path d="M120.534 129.914H122.968L127.479 136.43H130.915L126.369 129.843C128.946 129.485 130.915 127.516 130.915 125.117C130.915 122.468 128.481 120.32 125.51 120.32H117.526V136.43H120.534V129.914ZM120.534 122.862H125.51C126.906 122.862 128.051 123.864 128.051 125.117C128.051 126.37 126.906 127.373 125.51 127.373H120.534V122.862Z" fill="white"/>
<path d="M104.03 125.69L106.357 130.738H101.668L104.03 125.69ZM103.314 120.32L95.8682 136.43H99.0901L100.522 133.351H107.574L109.006 136.43H112.228L104.746 120.32H103.314Z" fill="white"/>
<path d="M145.271 120.32H137.288V136.43H140.295V129.914H142.73L147.24 136.43H150.677L146.13 129.843C148.708 129.485 150.677 127.516 150.677 125.117C150.677 122.468 148.243 120.32 145.271 120.32ZM147.813 125.117C147.813 126.37 146.667 127.373 145.271 127.373H140.295V122.862H145.271C146.667 122.862 147.813 123.864 147.813 125.117Z" fill="white"/>
<path d="M174.913 120C170.295 120 166.536 123.759 166.536 128.377C166.536 132.995 170.295 136.754 174.913 136.754C179.531 136.754 183.29 132.995 183.29 128.377C183.29 123.759 179.567 120 174.913 120ZM174.913 133.747C171.942 133.747 169.543 131.348 169.543 128.377C169.543 125.406 171.942 123.007 174.913 123.007C177.884 123.007 180.283 125.406 180.283 128.377C180.283 131.348 177.884 133.747 174.913 133.747Z" fill="white"/>
<path d="M248.193 147.603H246.904V147.102H250.019V147.603H248.73V151.147H248.193V147.603Z" fill="white"/>
<path d="M251.023 151.147H250.521V147.102H251.309L252.311 150.216C252.347 150.323 252.383 150.431 252.419 150.538C252.455 150.431 252.49 150.323 252.526 150.216L253.564 147.102H254.352V151.147H253.815V147.71C253.779 147.818 253.743 147.961 253.708 148.068L252.669 151.147H252.132L251.13 148.068C251.094 147.961 251.058 147.818 251.023 147.71V151.147Z" fill="white"/>
</g>
<defs>
<clipPath id="clip0_4327_157433">
<rect width="300" height="300" fill="white"/>
</clipPath>
</defs>
</svg>
